# xmcd CD database file generated by OrangeCD 6.5
#
# Track frame offsets:
#	150
#	21183
#	30648
#	43324
#	60416
#	79392
#	93046
#	108679
#	128298
#	141745
#	160207
#	174426
#	191161
#	210652
#	227442
#
# Disc length: 3174 seconds
#
# Revision: 1
# Processed by: cddbd v1.5.2PL0 Copyright (c) Steve Scherf et al.
# Submitted via: OrangeCD 6.5
#
DISCID=c90c640f
DTITLE=Various Artist - Cool Measure of Blues II
DYEAR=1900
DGENRE=Blues
TTITLE0=Indigo Swing - Ruby Mae
TTITLE1=Nighthawks - You've Got to Move
TTITLE2=Dan Penn - Goodbye London
TTITLE3=Julie Davis and Chris Labarbera - Summertime
TTITLE4=Donny and Susan Trexler - Something You Got
TTITLE5=Firstlove - Freaky
TTITLE6=Firstlove - Yippee Yi Yo
TTITLE7=Snoopy Dean - Take a Chance with Me
TTITLE8=Tom Principato - Play it Cool
TTITLE9=Sweet Betty - Your Tears Become My Tears
TTITLE10=Eric Allison - Just Let It Rip
TTITLE11=Bill Blue - Hard Work
TTITLE12=Richard Boals - I Need Some Money
TTITLE13=Jimmy Dewrance - Hard Luck Lovin'
TTITLE14=Selina Baker - The Look of Love
EXTD=
EXTT0=
EXTT1=
EXTT2=
EXTT3=
EXTT4=
EXTT5=
EXTT6=
EXTT7=
EXTT8=
EXTT9=
EXTT10=
EXTT11=
EXTT12=
EXTT13=
EXTT14=
PLAYORDER=
